<?xml version="1.0" standalone="no"?>
<!DOCTYPE svg PUBLIC "-//W3C//DTD SVG 20010904//EN"
 "http://www.w3.org/TR/2001/REC-SVG-20010904/DTD/svg10.dtd">
<svg version="1.0" xmlns="http://www.w3.org/2000/svg"
 width="800.000000pt" height="800.000000pt" viewBox="0 0 800.000000 800.000000"
 preserveAspectRatio="xMidYMid meet">
<metadata>
Created by potrace 1.11, written by Peter Selinger 2001-2013
</metadata>
<rect width="100%" height="100%" fill="#e6e5e5"/>
<g transform="translate(50.000000,750.000000) scale(0.100000,-0.100000)"
fill="#e8ac9a" stroke="none">
<path d="M2378 6988 c-3 -11 -3 -3166 1 -3191 1 -10 1352 -3 1396 6 17 4 66
14 110 23 498 97 921 451 1109 928 45 114 91 293 106 416 14 117 14 351 0 445
-19 127 -21 139 -47 240 -134 515 -504 908 -1008 1069 -44 14 -95 28 -114 31
-19 3 -37 7 -40 9 -3 2 -26 7 -51 10 -25 3 -56 9 -70 13 -14 3 -332 8 -706 10
-560 4 -682 2 -686 -9z m1352 -647 c357 -73 611 -313 706 -666 60 -223 38
-509 -57 -720 -94 -211 -280 -383 -500 -463 -46 -17 -102 -34 -124 -38 -22 -4
-49 -9 -60 -12 -11 -2 -167 -6 -347 -8 l-328 -3 0 42 c-1 49 -1 1819 0 1859
l0 27 328 -3 c191 -2 350 -8 382 -15z"/>
<path d="M940 2934 c0 -3 9 -26 19 -52 26 -63 96 -241 175 -447 36 -93 115
-298 176 -455 61 -157 113 -289 114 -295 2 -5 8 -23 15 -40 18 -43 50 -125
126 -325 37 -96 71 -184 75 -195 5 -11 20 -49 34 -85 126 -328 188 -488 196
-505 5 -11 53 -136 107 -277 l98 -258 277 0 277 0 7 22 c4 13 17 46 29 73 13
28 56 129 95 225 40 96 78 189 85 205 8 17 48 113 90 215 42 102 84 201 92
220 8 19 19 44 23 55 5 11 38 90 73 175 36 85 97 234 137 330 40 96 78 189 85
205 8 17 45 106 84 200 l70 170 20 -45 c10 -25 99 -236 196 -470 96 -234 180
-434 184 -445 5 -11 16 -36 24 -55 8 -19 50 -118 92 -220 42 -102 84 -203 94
-225 10 -22 73 -174 141 -337 l123 -298 276 0 276 0 89 233 c49 127 118 306
153 397 36 91 78 201 95 245 16 44 34 89 39 100 5 11 115 295 244 630 129 336
239 619 244 630 5 11 23 58 41 105 17 47 38 100 46 117 7 18 30 77 49 130 20
54 40 107 45 118 15 31 90 225 90 230 0 3 -141 5 -314 5 l-315 0 -19 -52 c-19
-50 -68 -176 -184 -473 -27 -71 -77 -200 -110 -285 -33 -85 -114 -294 -180
-465 -66 -170 -136 -350 -154 -400 -19 -49 -39 -99 -44 -110 -5 -11 -27 -69
-50 -130 -23 -60 -46 -114 -50 -118 -4 -5 -13 8 -20 30 -7 21 -16 43 -20 48
-4 6 -19 42 -34 80 -15 39 -34 84 -41 100 -8 17 -46 109 -85 205 -39 96 -78
189 -85 205 -16 36 -50 120 -190 460 -59 143 -113 274 -121 290 -7 17 -56 136
-109 265 -54 129 -103 249 -110 265 -7 17 -17 42 -23 58 l-12 27 -291 -2 -290
-3 -95 -230 c-53 -126 -101 -243 -109 -260 -7 -16 -67 -163 -134 -325 -67
-162 -130 -315 -141 -340 -11 -25 -65 -155 -120 -290 -56 -135 -108 -259 -116
-277 -8 -17 -14 -34 -14 -38 0 -3 -10 -27 -21 -53 -12 -26 -30 -66 -40 -89
-11 -23 -19 -46 -19 -50 -1 -18 -38 -85 -43 -77 -3 5 -44 110 -92 234 -47 124
-97 252 -110 285 -13 33 -51 132 -85 220 -34 88 -89 230 -122 315 -78 201 -96
247 -163 421 -30 79 -59 153 -64 164 -5 11 -19 47 -31 80 -12 33 -26 69 -31
80 -9 22 -73 190 -82 218 -6 16 -30 17 -322 17 -173 0 -315 -3 -315 -6z"/>
</g>
</svg>
